<svg width="324" height="63" viewBox="0 0 324 63" fill="none" xmlns="http://www.w3.org/2000/svg">
<path d="M24.809 62.9H24.009C19.909 62.8 12.809 60.4 8.60899 55.2C8.40898 54.9 8.30898 54.6 8.30898 54.2C8.30898 53.5 8.70898 52.7 9.20898 52.7C9.30898 52.7 9.50898 52.7 9.60898 52.9C13.509 56 18.109 57.7 22.709 57.7C29.509 57.7 36.209 54 40.209 45.5C41.409 43.1 41.909 41.2 41.909 39.8C41.909 34.5 35.209 35.1 32.409 32.9C30.709 38.3 27.909 47.5 27.909 51.4C27.909 51.9 27.509 52.3 27.009 52.4H26.209C23.709 52.4 20.909 52 20.409 49.8C20.309 49.4 20.309 48.9 20.309 48.4C20.309 40.9 28.009 19.1 30.409 13.6C30.709 12.8 31.709 12.5 32.809 12.5C35.309 12.5 38.809 14 38.809 15.6L38.709 16L33.709 29L34.709 29.1C38.109 29.1 42.209 26.1 45.209 22.2C47.509 19.3 49.509 15.2 49.509 11.8C49.509 8.5 47.609 5.7 42.309 5.2L38.909 5C26.409 5 9.00899 10.8 6.40898 23.8C6.30898 24.4 6.00898 24.7 5.50898 24.7L5.00898 24.6C2.60898 24 0.208984 19 0.208984 15C0.208984 13.4 0.608984 11.9 1.60898 11.1C10.709 3.2 22.009 0.399997 33.609 0.399997H34.809C43.909 0.399997 56.709 3.2 56.709 14.2V14.3C56.609 22.7 50.309 30.6 42.509 33.4C47.409 35.3 49.509 38.8 49.509 42.8C49.509 45.2 48.709 47.8 47.409 50.5C43.409 58.2 33.309 62.9 24.809 62.9ZM65.452 41C69.752 41 75.452 32.2 75.452 29C75.452 28.4 75.252 28.1 74.952 27.9C74.652 27.7 74.452 27.7 74.152 27.7C71.852 27.7 68.652 31.9 67.652 33.3C66.152 35.6 64.852 38.2 64.052 40.6C64.452 40.9 64.952 41 65.452 41ZM67.352 58H66.252C57.752 57.7 54.652 52.7 54.652 46.4C54.652 43.3 55.352 40 56.552 36.8C58.952 30.4 64.252 22.7 71.552 22.7H71.952C75.752 22.8 78.852 24.7 78.852 28.5V28.7C78.652 35.8 71.352 44.5 65.952 44.5C64.952 44.5 63.952 44.2 63.152 43.5C62.952 44.7 62.752 46 62.752 47.3C62.752 51.1 63.852 55 67.152 55.7L68.252 55.8C68.852 55.8 69.652 55.7 70.452 55.5C73.952 54.2 78.952 49.9 85.252 36.8C85.452 36.4 85.752 36.2 86.052 36.2C86.252 36.2 86.452 36.3 86.652 36.4C86.952 36.5 87.152 36.8 87.152 37.2C87.152 37.2 87.152 37.4 87.052 37.6C80.352 51.6 74.852 56.1 70.852 57.5C69.552 57.9 68.352 58 67.352 58ZM90.4676 58H89.5676C83.6676 58 80.8676 54.2 80.8676 49.9C80.8676 47.6 81.6676 45.2 83.1676 43.1C83.6676 42.4 84.4676 42.1 85.2676 42.1C87.5676 42.1 90.4676 44.2 90.4676 45.6C90.4676 45.8 90.3676 46.1 90.0676 46.3C88.4676 47.6 87.0676 51.1 87.0676 53.2C87.0676 54 87.2676 54.5 87.6676 54.8C87.8676 55 88.0676 55 88.2676 55C88.8676 55 89.5676 54.5 90.0676 53.9C91.4676 52.1 91.8676 49.6 91.8676 46.8C91.8676 42 90.6676 36.4 90.6676 32C90.6676 31.3 90.6676 30.6 90.7676 29.9L87.1676 37.7C86.9676 38 86.5676 38.2 86.2676 38.2C86.0676 38.2 85.9676 38.2 85.7676 38.1C85.5676 38 85.2676 37.9 85.2676 37.4C85.2676 37.2 85.2676 36.9 85.3676 36.7C86.1676 34.9 91.3676 22.7 93.2676 22.7H100.668C101.268 22.7 101.668 23.1 101.668 23.6C101.668 23.8 101.668 24.1 101.468 24.3C99.6676 27 99.0676 29.7 99.0676 32.3C99.0676 36.5 100.468 40.7 100.468 45C100.468 46 100.368 47 100.168 48C99.6676 50.3 99.0676 52.1 98.1676 53.5C99.4676 52.1 101.568 49.4 103.168 47C104.868 44.3 106.768 41 108.768 36.7C108.968 36.3 109.268 36.2 109.668 36.2C109.768 36.2 109.968 36.2 110.168 36.3C110.468 36.5 110.668 36.8 110.668 37.2L110.568 37.6C108.768 41.4 106.768 45.1 104.668 48.3C103.168 50.6 101.668 52.6 99.9676 54.5C96.9676 57.8 93.4676 58 90.4676 58ZM114.003 58.2C111.103 58.2 108.203 58.2 107.103 55.7C106.603 54.6 106.303 53 106.303 51.2C106.303 43.4 110.403 30.4 114.103 20.5L108.603 20.3C108.003 20.3 107.603 19.8 107.603 19.3C107.603 18.8 107.903 18.4 108.503 18.4H108.603C110.403 18.4 112.603 18.4 114.803 18.5C116.103 15.1 117.403 12.1 118.303 10C118.603 9.1 119.603 8.8 120.803 8.8C123.403 8.8 127.003 10.4 127.003 11.8L126.903 12.1C126.003 14.2 125.103 16.4 124.203 18.8C126.003 18.8 127.703 18.8 129.203 18.9C129.903 18.9 130.203 19.4 130.203 19.9C130.203 20.4 129.903 20.8 129.303 20.8H129.203C127.503 20.8 125.503 20.8 123.403 20.7C120.303 30 116.903 40.3 114.903 48.8C114.803 49.3 113.803 53.5 113.803 55.3C113.803 55.8 113.903 56.2 114.103 56.2C114.403 56.2 114.503 56.6 114.503 57.1C114.503 57.6 114.403 58.2 114.003 58.2ZM152.829 62.9C147.829 62.9 142.129 59 141.129 53.9L141.029 52.7C141.029 49.1 143.629 43.4 146.829 41.6C147.029 41.5 147.129 41.5 147.329 41.5C147.829 41.5 148.329 41.9 148.329 42.4C148.329 42.6 148.229 42.8 148.129 43C146.229 45.8 144.929 49 144.929 51.7V52.5C145.129 55.3 147.329 57.9 150.029 57.9C150.529 57.9 150.929 57.8 151.429 57.7C155.229 56.7 158.729 53 161.229 48.9C162.529 46.9 165.129 42 165.129 39.1L165.029 38.2C165.029 38 164.729 38 164.329 38C162.129 38 155.129 40 152.929 40.1H152.729C148.429 40.1 143.929 36.7 143.929 31.6C143.929 22.6 157.029 0.299998 169.229 0.299998C178.329 0.299998 181.329 6.5 181.329 13.4C181.329 16.4 180.729 19.5 179.829 22.4C177.829 28.5 174.429 30.1 171.129 30.1C169.229 30.1 167.329 29.5 165.729 29.1C165.229 29 164.929 28.6 164.929 28.1C164.929 27.7 165.229 27.2 165.829 27.2C168.729 27 170.829 22.1 171.629 19.7C172.529 16.8 173.129 13.2 173.129 10.1L173.029 7.9C172.829 6.2 172.329 4.6 171.329 4.6H171.029C166.129 5.8 153.529 24.9 153.529 33.6L153.729 35.1C153.929 35.8 154.629 36.1 155.629 36.1C158.429 36.1 163.629 33.9 165.529 33.9H165.629C171.729 33.9 172.929 40.3 172.929 40.3C172.929 48.8 163.429 62.9 152.829 62.9ZM188.108 41C192.408 41 198.108 32.2 198.108 29C198.108 28.4 197.908 28.1 197.608 27.9C197.308 27.7 197.108 27.7 196.808 27.7C194.508 27.7 191.308 31.9 190.308 33.3C188.808 35.6 187.508 38.2 186.708 40.6C187.108 40.9 187.608 41 188.108 41ZM190.008 58H188.908C180.408 57.7 177.308 52.7 177.308 46.4C177.308 43.3 178.008 40 179.208 36.8C181.608 30.4 186.908 22.7 194.208 22.7H194.608C198.408 22.8 201.508 24.7 201.508 28.5V28.7C201.308 35.8 194.008 44.5 188.608 44.5C187.608 44.5 186.608 44.2 185.808 43.5C185.608 44.7 185.408 46 185.408 47.3C185.408 51.1 186.508 55 189.808 55.7L190.908 55.8C191.508 55.8 192.308 55.7 193.108 55.5C196.608 54.2 201.608 49.9 207.908 36.8C208.108 36.4 208.408 36.2 208.708 36.2C208.908 36.2 209.108 36.3 209.308 36.4C209.608 36.5 209.808 36.8 209.808 37.2C209.808 37.2 209.808 37.4 209.708 37.6C203.008 51.6 197.508 56.1 193.508 57.5C192.208 57.9 191.008 58 190.008 58ZM213.024 58H211.624C209.224 58 206.924 57.7 205.924 55.6C205.424 54.5 205.224 53 205.224 51.3C205.224 39.1 215.524 13.5 217.124 9.8C217.624 9 218.624 8.6 219.824 8.6C222.424 8.6 225.724 10.3 225.724 11.7L225.624 12C224.424 15.2 213.924 42.7 212.824 53L212.724 55C212.724 55.6 212.724 56 212.924 56H213.124C214.424 56 216.324 53.4 216.924 52.6C220.024 48.3 223.424 41 225.424 36.8C225.624 36.3 225.924 36.2 226.324 36.2C226.424 36.2 226.624 36.2 226.824 36.3C227.124 36.5 227.324 36.8 227.324 37.1C227.324 37.3 227.324 37.4 227.224 37.6C225.124 42.2 221.824 49.2 218.424 53.7C217.324 55.3 215.124 57.9 213.024 58ZM230.504 58H229.104C226.704 58 224.404 57.7 223.404 55.6C222.904 54.5 222.704 53 222.704 51.3C222.704 39.1 233.004 13.5 234.604 9.8C235.104 9 236.104 8.6 237.304 8.6C239.904 8.6 243.204 10.3 243.204 11.7L243.104 12C241.904 15.2 231.404 42.7 230.304 53L230.204 55C230.204 55.6 230.204 56 230.404 56H230.604C231.904 56 233.804 53.4 234.404 52.6C237.504 48.3 240.904 41 242.904 36.8C243.104 36.3 243.404 36.2 243.804 36.2C243.904 36.2 244.104 36.2 244.304 36.3C244.604 36.5 244.804 36.8 244.804 37.1C244.804 37.3 244.804 37.4 244.704 37.6C242.604 42.2 239.304 49.2 235.904 53.7C234.804 55.3 232.604 57.9 230.504 58ZM251.585 41C255.885 41 261.585 32.2 261.585 29C261.585 28.4 261.385 28.1 261.085 27.9C260.785 27.7 260.585 27.7 260.285 27.7C257.985 27.7 254.785 31.9 253.785 33.3C252.285 35.6 250.985 38.2 250.185 40.6C250.585 40.9 251.085 41 251.585 41ZM253.485 58H252.385C243.885 57.7 240.785 52.7 240.785 46.4C240.785 43.3 241.485 40 242.685 36.8C245.085 30.4 250.385 22.7 257.685 22.7H258.085C261.885 22.8 264.985 24.7 264.985 28.5V28.7C264.785 35.8 257.485 44.5 252.085 44.5C251.085 44.5 250.085 44.2 249.285 43.5C249.085 44.7 248.885 46 248.885 47.3C248.885 51.1 249.985 55 253.285 55.7L254.385 55.8C254.985 55.8 255.785 55.7 256.585 55.5C260.085 54.2 265.085 49.9 271.385 36.8C271.585 36.4 271.885 36.2 272.185 36.2C272.385 36.2 272.585 36.3 272.785 36.4C273.085 36.5 273.285 36.8 273.285 37.2C273.285 37.2 273.285 37.4 273.185 37.6C266.485 51.6 260.985 56.1 256.985 57.5C255.685 57.9 254.485 58 253.485 58ZM286.4 58H285.4C283 58 279.5 57.9 278.3 55.6C277.8 54.6 277.5 53.2 277.5 51.6C277.5 44.1 282.5 31.7 284.3 26.3C283 26.4 281.2 26.9 279.5 26.9C279 26.9 278.4 26.9 277.9 26.7C276.4 30.6 275.5 32.6 273.2 37.6C273.1 37.9 272.7 38.2 272.4 38.2C272.2 38.2 272.1 38.2 271.9 38.1C271.6 38 271.3 37.8 271.3 37.2C271.3 37.1 271.3 37 271.4 36.8C273.8 31.5 274.5 29.9 276.2 25.8C275.3 25.1 274.9 24.1 274.9 23C274.9 21.6 275.4 20.1 275.9 18.8C276.2 18 277.3 17.7 278.3 17.7C279.5 17.7 280.8 18.1 280.8 18.9L280.7 19.2C280.3 20.6 279.5 22.9 279.2 23.6C281.9 23.5 284.2 22.7 286.3 22.7C288.8 22.7 291.3 24.6 291.7 27.2L291.8 27.9C291.8 29.5 291 31.6 289.9 34.8C288.3 39.3 285.1 48.2 285.1 53.2L285.3 54.9C285.5 55.8 285.9 56.1 286.4 56.1C287.7 56.1 289.6 53.8 290.1 53C292 50.2 294.5 45.2 298.3 36.8C298.5 36.4 298.8 36.2 299.1 36.2C299.4 36.2 299.6 36.3 299.8 36.4C300 36.5 300.2 36.8 300.2 37.2C300.2 37.3 300.2 37.4 300.1 37.6C296.3 46.1 293.8 51.2 291.8 54.1C289.6 57.3 288.2 58 286.4 58ZM303.456 58H302.556C296.656 58 293.856 54.2 293.856 49.9C293.856 47.6 294.656 45.2 296.156 43.1C296.656 42.4 297.456 42.1 298.256 42.1C300.556 42.1 303.456 44.2 303.456 45.6C303.456 45.8 303.356 46.1 303.056 46.3C301.456 47.6 300.056 51.1 300.056 53.2C300.056 54 300.256 54.5 300.656 54.8C300.856 55 301.056 55 301.256 55C301.856 55 302.556 54.5 303.056 53.9C304.456 52.1 304.856 49.6 304.856 46.8C304.856 42 303.656 36.4 303.656 32C303.656 31.3 303.656 30.6 303.756 29.9L300.156 37.7C299.956 38 299.556 38.2 299.256 38.2C299.056 38.2 298.956 38.2 298.756 38.1C298.556 38 298.256 37.9 298.256 37.4C298.256 37.2 298.256 36.9 298.356 36.7C299.156 34.9 304.356 22.7 306.256 22.7H313.656C314.256 22.7 314.656 23.1 314.656 23.6C314.656 23.8 314.656 24.1 314.456 24.3C312.656 27 312.056 29.7 312.056 32.3C312.056 36.5 313.456 40.7 313.456 45C313.456 46 313.356 47 313.156 48C312.656 50.3 312.056 52.1 311.156 53.5C312.456 52.1 314.556 49.4 316.156 47C317.856 44.3 319.756 41 321.756 36.7C321.956 36.3 322.256 36.2 322.656 36.2C322.756 36.2 322.956 36.2 323.156 36.3C323.456 36.5 323.656 36.8 323.656 37.2L323.556 37.6C321.756 41.4 319.756 45.1 317.656 48.3C316.156 50.6 314.656 52.6 312.956 54.5C309.956 57.8 306.456 58 303.456 58Z" fill="#D24949"/>
</svg>
